custom-analysis
version=1
nRows=6
nColumns=98
inDegrees=no

This file contains tibia displacement and acting force.

Units are S.I. units (seconds, meters, Newtons, ...)
Angles are in degrees.

endheader
time	APT	SIT	knee_angle	aACL_R_force	pACL_R_force	aPCL_R_force	pPCL_R_force	aMCL_R_force	mMCL_R_force	pMCL_R_force	aLCL_R_force	mLCL_R_force	pLCL_R_force	aPCL_L_force	pPCL_L_force	aMCL_L_force	aLCL_L_force	aACL_R_length	pACL_R_length	aPCL_R_length	pPCL_R_length	aMCL_R_length	mMCL_R_length	pMCL_R_length	aLCL_R_length	mLCL_R_length	pLCL_R_length	aPCL_L_length	pPCL_L_length	aMCL_L_length	aLCL_L_length	aACL_R_strain	pACL_R_strain	aPCL_R_strain	pPCL_R_strain	aMCL_R_strain	mMCL_R_strain	pMCL_R_strain	aLCL_R_strain	mLCL_R_strain	pLCL_R_strain	aPCL_L_strain	pPCL_L_strain	aMCL_L_strain	aLCL_L_strain	femur_lat_meniscii_r.femur_lat_r.force.X	femur_lat_meniscii_r.femur_lat_r.force.Y	femur_lat_meniscii_r.femur_lat_r.force.Z	femur_lat_meniscii_r.femur_lat_r.torque.X	femur_lat_meniscii_r.femur_lat_r.torque.Y	femur_lat_meniscii_r.femur_lat_r.torque.Z	femur_lat_meniscii_r.meniscus_lat_r.force.X	femur_lat_meniscii_r.meniscus_lat_r.force.Y	femur_lat_meniscii_r.meniscus_lat_r.force.Z	femur_lat_meniscii_r.meniscus_lat_r.torque.X	femur_lat_meniscii_r.meniscus_lat_r.torque.Y	femur_lat_meniscii_r.meniscus_lat_r.torque.Z	femur_med_meniscii_r.femur_med_r.force.X	femur_med_meniscii_r.femur_med_r.force.Y	femur_med_meniscii_r.femur_med_r.force.Z	femur_med_meniscii_r.femur_med_r.torque.X	femur_med_meniscii_r.femur_med_r.torque.Y	femur_med_meniscii_r.femur_med_r.torque.Z	femur_med_meniscii_r.meniscus_med_r.force.X	femur_med_meniscii_r.meniscus_med_r.force.Y	femur_med_meniscii_r.meniscus_med_r.force.Z	femur_med_meniscii_r.meniscus_med_r.torque.X	femur_med_meniscii_r.meniscus_med_r.torque.Y	femur_med_meniscii_r.meniscus_med_r.torque.Z	femur_med_tibia_r.tibia_upper_r.force.X	femur_med_tibia_r.tibia_upper_r.force.Y	femur_med_tibia_r.tibia_upper_r.force.Z	femur_med_tibia_r.tibia_upper_r.torque.X	femur_med_tibia_r.tibia_upper_r.torque.Y	femur_med_tibia_r.tibia_upper_r.torque.Z	femur_med_tibia_r.femur_med_r.force.X	femur_med_tibia_r.femur_med_r.force.Y	femur_med_tibia_r.femur_med_r.force.Z	femur_med_tibia_r.femur_med_r.torque.X	femur_med_tibia_r.femur_med_r.torque.Y	femur_med_tibia_r.femur_med_r.torque.Z	femur_lat_tibia_r.tibia_upper_r.force.X	femur_lat_tibia_r.tibia_upper_r.force.Y	femur_lat_tibia_r.tibia_upper_r.force.Z	femur_lat_tibia_r.tibia_upper_r.torque.X	femur_lat_tibia_r.tibia_upper_r.torque.Y	femur_lat_tibia_r.tibia_upper_r.torque.Z	femur_lat_tibia_r.femur_lat_r.force.X	femur_lat_tibia_r.femur_lat_r.force.Y	femur_lat_tibia_r.femur_lat_r.force.Z	femur_lat_tibia_r.femur_lat_r.torque.X	femur_lat_tibia_r.femur_lat_r.torque.Y	femur_lat_tibia_r.femur_lat_r.torque.Z	femur_lat_meniscii_force_r	femur_med_meniscii_force_r	femur_lat_tibia_force_r	femur_med_tibia_force_r
      0.16216980	      0.01258258	      0.01700144	     55.78915775	    -11.11213944	      0.00000000	    544.45377194	    369.57211850	      0.00000000	      0.00000000	      0.00000000	      0.00000000	      0.00000000	      0.00000000	      0.00000000	      0.00000000	      0.00000001	      0.00000000	      0.03116932	      0.02384923	      0.03473308	      0.03235981	      0.05943441	      0.05925770	      0.05644819	      0.05227520	      0.04760589	      0.04273891	      0.01525851	      0.01651186	      0.06550154	      0.04489616	      0.00528354	     -0.04826559	      0.11698804	      0.08270962	     -0.00987206	     -0.00896089	     -0.03881980	     -0.06613399	     -0.15470393	     -0.18347912	      0.00000079	     -0.32847694	      0.00000060	     -0.00000086	     40.56951074	     97.89765648	     15.96209243	     -8.83614557	      1.00486487	     15.62725013	    -40.56951074	    -97.89765648	    -15.96209243	      2.81615509	     -1.38549198	      2.00769163	      8.19673672	      9.85117698	      7.72396602	     -2.90831646	     -0.19678088	      3.32426733	     -8.19673672	     -9.85117698	     -7.72396602	     -0.05784235	      0.02878592	      0.03770641	   -768.89422574	   -729.64675368	    233.56014495	    -16.78666280	     17.18437808	     -1.68340997	    768.89422574	    729.64675368	   -233.56014495	    107.93317784	    -13.54392894	    313.11612904	    -28.66402350	    -37.80217736	    -12.94813785	      1.25215087	     -1.03032842	      0.23747198	     28.66402350	     37.80217736	     12.94813785	     -6.19435892	      0.72758116	     11.58724559	    107.16634146	     14.96301547	     49.17606257	   1085.41837871
      0.16238077	      0.01259660	      0.01704248	     55.90455947	    -11.07053314	      0.00000000	    547.11864648	    370.89790521	      0.00000000	      0.00000000	      0.00000000	      0.00000000	      0.00000000	      0.00000000	      0.00000000	      0.00000000	      0.00000001	      0.00000000	      0.03116322	      0.02384439	      0.03474821	      0.03236822	      0.05944449	      0.05925811	      0.05644234	      0.05227157	      0.04759683	      0.04272722	      0.01525851	      0.01651186	      0.06550154	      0.04489616	      0.00508690	     -0.04845863	      0.11747461	      0.08299112	     -0.00970419	     -0.00895404	     -0.03891939	     -0.06619899	     -0.15486480	     -0.18370240	      0.00000079	     -0.32847694	      0.00000060	     -0.00000086	     40.27789215	     97.97636529	     15.86111677	     -8.79881701	      0.99545989	     15.50125522	    -40.27789215	    -97.97636529	    -15.86111677	      2.81744078	     -1.37425790	      2.02780548	      8.29394533	      9.79878590	      7.70029537	     -2.89954427	     -0.19908263	      3.36287219	     -8.29394533	     -9.79878590	     -7.70029537	     -0.05778150	      0.03112552	      0.03617586	   -773.40224770	   -731.04300334	    233.69998148	    -16.81127025	     17.28358642	     -1.67633853	    773.40224770	    731.04300334	   -233.69998148	    108.02066991	    -13.63757827	    314.92815391	    -27.96425588	    -36.78932746	    -12.59109140	      1.21744916	     -1.00497388	      0.23396575	     27.96425588	     36.78932746	     12.59109140	     -6.02369993	      0.70994828	     11.30252582	    107.11326611	     14.96997939	     47.89561362	   1089.58275997
      0.16326314	      0.01265441	      0.01721396	     56.38748715	    -10.66285054	      0.00000000	    558.19051532	    376.32294277	      0.00000000	      0.00000000	      0.00000000	      0.00000000	      0.00000000	      0.00000000	      0.00000000	      0.00000000	      0.00000001	      0.00000000	      0.03113832	      0.02382507	      0.03481134	      0.03240341	      0.05948709	      0.05926042	      0.05641870	      0.05225592	      0.04755871	      0.04267842	      0.01525851	      0.01651186	      0.06550154	      0.04489616	      0.00428384	     -0.04922978	      0.11950498	      0.08416849	     -0.00899441	     -0.00891529	     -0.03932192	     -0.06647849	     -0.15554176	     -0.18463472	      0.00000079	     -0.32847694	      0.00000060	     -0.00000086	     40.01264457	     97.37615657	     14.91536908	     -8.39780785	      0.98153877	     15.38253100	    -40.01264457	    -97.37615657	    -14.91536908	      2.77884778	     -1.34329873	      2.05292405	      8.27248752	      9.27114569	      7.56479309	     -2.85725359	     -0.19642138	      3.35000601	     -8.27248752	     -9.27114569	     -7.56479309	     -0.04945651	      0.02998811	      0.03260471	   -792.01414812	   -732.81378055	    235.69641119	    -16.89707644	     17.73924638	     -1.74368325	    792.01414812	    732.81378055	   -235.69641119	    108.91011142	    -14.04211229	    322.43136765	    -25.43054324	    -32.90222808	    -11.11267025	      1.08155263	     -0.90802493	      0.21429050	     25.43054324	     32.90222808	     11.11267025	     -5.32416481	      0.64470774	     10.27424666	    106.32777544	     14.54696830	     43.04370549	   1104.47057274
      0.16343288	      0.01266537	      0.01724692	     56.48043714	    -10.58787622	      0.00000000	    560.31706464	    377.37561060	      0.00000000	      0.00000000	      0.00000000	      0.00000000	      0.00000000	      0.00000000	      0.00000000	      0.00000000	      0.00000001	      0.00000000	      0.03113365	      0.02382152	      0.03482346	      0.03241018	      0.05949538	      0.05926099	      0.05641432	      0.05225284	      0.04755133	      0.04266905	      0.01525851	      0.01651186	      0.06550154	      0.04489616	      0.00413320	     -0.04937123	      0.11989478	      0.08439513	     -0.00885629	     -0.00890579	     -0.03939656	     -0.06653357	     -0.15567264	     -0.18481367	      0.00000079	     -0.32847694	      0.00000060	     -0.00000086	     39.75178634	     97.44439448	     14.93058637	     -8.40831110	      0.97474151	     15.27029947	    -39.75178634	    -97.44439448	    -14.93058637	      2.78327880	     -1.33693750	      2.06988023	      8.34971015	      9.23443222	      7.55324526	     -2.85339259	     -0.19810054	      3.38061279	     -8.34971015	     -9.23443222	     -7.55324526	     -0.04908863	      0.03155155	      0.03154468	   -795.35495446	   -733.14045559	    235.70335570	    -16.90152106	     17.81240223	     -1.74832300	    795.35495446	    733.14045559	   -235.70335570	    108.92388486	    -14.11300670	    323.77436828	    -24.86697252	    -32.14980102	    -10.84985612	      1.05599873	     -0.88817936	      0.21224090	     24.86697252	     32.14980102	     10.84985612	     -5.19847745	      0.63067913	     10.04499056	    106.29457626	     14.56172764	     42.06774780	   1107.08649305
      0.16419657	      0.01271409	      0.01739508	     56.89883905	    -10.22241363	      0.00000000	    569.84913119	    382.08167443	      0.00000000	      0.00000000	      0.00000000	      0.00000000	      0.00000000	      0.00000000	      0.00000000	      0.00000000	      0.00000001	      0.00000000	      0.03111307	      0.02380621	      0.03487792	      0.03244071	      0.05953306	      0.05926405	      0.05639527	      0.05223867	      0.04751803	      0.04262700	      0.01525851	      0.01651186	      0.06550154	      0.04489616	      0.00346933	     -0.04998234	      0.12164597	      0.08541651	     -0.00822857	     -0.00885471	     -0.03972088	     -0.06678669	     -0.15626403	     -0.18561712	      0.00000079	     -0.32847694	      0.00000060	     -0.00000086	     39.69069088	     97.05771621	     14.83443912	     -8.37497623	      0.97258254	     15.23964178	    -39.69069088	    -97.05771621	    -14.83443912	      2.78526613	     -1.33496293	      2.08701724	      9.22963844	      9.33356132	      7.40802344	     -2.78948883	     -0.22153994	      3.73790113	     -9.22963844	     -9.33356132	     -7.40802344	     -0.05757085	      0.05564025	      0.01826496	   -809.38520034	   -732.34683714	    237.30126712	    -16.92046952	     18.16256305	     -1.79811584	    809.38520034	    732.34683714	   -237.30126712	    109.58741944	    -14.42021601	    329.41521954	    -23.02796844	    -29.27116285	     -9.98487367	      0.96259101	     -0.82330308	      0.19414657	     23.02796844	     29.27116285	      9.98487367	     -4.77624568	      0.58463466	      9.30089810	    105.90378559	     15.07250490	     38.55886418	   1117.02649197
      0.16444688	      0.01272982	      0.01744362	     57.03603922	    -10.17386832	      0.00000000	    572.98953121	    383.70971538	      0.00000000	      0.00000000	      0.00000000	      0.00000000	      0.00000000	      0.00000000	      0.00000000	      0.00000000	      0.00000001	      0.00000000	      0.03110648	      0.02380142	      0.03489572	      0.03245072	      0.05954553	      0.05926521	      0.05638926	      0.05223389	      0.04750704	      0.04261322	      0.01525851	      0.01651186	      0.06550154	      0.04489616	      0.00325678	     -0.05017345	      0.12221837	      0.08575126	     -0.00802084	     -0.00883520	     -0.03982329	     -0.06687198	     -0.15645922	     -0.18588035	      0.00000079	     -0.32847694	      0.00000060	     -0.00000086	     40.26423719	     96.25049211	     14.22967069	     -8.10093737	      0.98542077	     15.47989219	    -40.26423719	    -96.25049211	    -14.22967069	      2.74323258	     -1.33686450	      2.05744471	      9.34634890	      9.29461608	      7.36330536	     -2.77173985	     -0.22413294	      3.78410912	     -9.34634890	     -9.29461608	     -7.36330536	     -0.05836049	      0.05863641	      0.01708213	   -813.27882907	   -731.73404350	    236.59328537	    -16.88386975	     18.22933259	     -1.80338996	    813.27882907	    731.73404350	   -236.59328537	    109.28638506	    -14.49763751	    330.97426083	    -22.50493648	    -28.49460507	     -9.76661533	      0.93783922	     -0.80568230	      0.19006333	     22.50493648	     28.49460507	      9.76661533	     -4.66863274	      0.57177381	      9.08913915	    105.29885829	     15.09842348	     37.60055132	   1119.30047213
